<?xml version="1.0" encoding="UTF-8" standalone="no"?>
<!-- Created with Inkscape (http://www.inkscape.org/) -->

<svg
   width="210mm"
   height="297mm"
   viewBox="0 0 210 297"
   version="1.1"
   id="svg5"
   inkscape:version="1.1.1 (3bf5ae0d25, 2021-09-20)"
   sodipodi:docname="DINOTUR.svg"
   xmlns:inkscape="http://www.inkscape.org/namespaces/inkscape"
   xmlns:sodipodi="http://sodipodi.sourceforge.net/DTD/sodipodi-0.dtd"
   xmlns:xlink="http://www.w3.org/1999/xlink"
   xmlns="http://www.w3.org/2000/svg"
   xmlns:svg="http://www.w3.org/2000/svg">
  <sodipodi:namedview
     id="namedview7"
     pagecolor="#ffffff"
     bordercolor="#999999"
     borderopacity="1"
     inkscape:pageshadow="0"
     inkscape:pageopacity="0"
     inkscape:pagecheckerboard="0"
     inkscape:document-units="mm"
     showgrid="false"
     inkscape:zoom="0.33386194"
     inkscape:cx="61.402627"
     inkscape:cy="591.5619"
     inkscape:window-width="1366"
     inkscape:window-height="715"
     inkscape:window-x="-8"
     inkscape:window-y="-8"
     inkscape:window-maximized="1"
     inkscape:current-layer="layer1" />
  <defs
     id="defs2">
    <linearGradient
       inkscape:collect="always"
       xlink:href="#linearGradient2426"
       id="linearGradient8096"
       gradientUnits="userSpaceOnUse"
       x1="215.32806"
       y1="214.2166"
       x2="166.82901"
       y2="43.368477"
       gradientTransform="matrix(0.26458333,0,0,0.26458333,12.65182,4.9300047)" />
    <linearGradient
       inkscape:collect="always"
       id="linearGradient2426">
      <stop
         style="stop-color:#008000;stop-opacity:1"
         offset="0"
         id="stop2422" />
      <stop
         style="stop-color:#95f76d;stop-opacity:0.98039216"
         offset="0.38639605"
         id="stop3624" />
      <stop
         style="stop-color:#9acd32;stop-opacity:0.98039216"
         offset="1"
         id="stop2424" />
    </linearGradient>
  </defs>
  <g
     inkscape:label="Capa 1"
     inkscape:groupmode="layer"
     id="layer1">
    <g
       id="g867"
       transform="matrix(2.6269574,0,0,2.6269574,-25.082788,-14.406795)"
       inkscape:export-filename="C:\Users\Nelly\DINOTUR.png"
       inkscape:export-xdpi="96"
       inkscape:export-ydpi="96">
      <path
         class="st0"
         d="m 76.04863,37.748919 c -0.0873,-1.75948 -0.17462,-3.5216 -0.26194,-5.28108 -0.22489,-4.52438 -2.90248,-6.61723 -7.33954,-5.6224 -2.20398,0.49477 -4.36033,1.2118 -6.54579,1.78859 -4.40267,1.16152 -8.38994,-1.68011 -8.85825,-6.241524 -0.26988,-2.624666 0.43392,-4.93977 2.21456,-6.847416 6.6384,-7.0987713 15.99142,-7.4453753 23.39446,-1.817688 3.048,2.31775 4.43442,5.834063 5.6806,9.339792 3.31259,9.310686 2.33892,18.491726 -0.90222,27.585456 -1.38642,3.88673 -3.05065,7.64117 -5.71236,10.86115 -0.48154,0.58208 -0.93662,1.25412 -1.55575,1.63512 -2.23573,1.37054 -2.07433,3.45281 -1.77006,5.56948 0.15875,1.11654 0.52917,2.20133 0.73554,3.31258 0.25135,1.36261 -0.29104,2.3548 -1.57427,2.7649 -1.28323,0.41275 -2.60615,0.58208 -3.96875,0.33602 -1.15888,-0.21167 -1.73038,-0.89958 -1.91558,-2.01877 -0.22755,-1.37583 -0.16405,-2.76225 -0.23548,-4.14337 -0.0397,-0.762 -0.19844,-1.53988 -1.19063,-1.38378 -0.96308,0.15082 -0.74083,0.92075 -0.62706,1.60073 0.17727,1.07421 0.45773,2.1299 0.42862,3.23586 -0.0317,1.24089 -0.5715,2.16164 -1.76477,2.46327 -3.75973,0.95514 -5.90814,-0.21431 -5.88168,-3.93965 0.005,-0.69321 0.23018,-1.43933 -0.26723,-2.07168 -0.67734,-0.8599 -5.27844,-0.80963 -5.93461,0.0714 -0.53446,0.71702 -0.3466,1.53723 -0.23018,2.31511 0.4736,3.20675 -0.0397,3.83116 -3.24644,3.85233 -3.32581,0.0212 -4.26773,-0.87842 -4.38679,-4.20423 -0.0238,-0.62971 -0.0212,-1.25942 -0.008,-1.88912 0.008,-0.44186 -0.10319,-0.73555 -0.62177,-0.71702 -0.508,0.0185 -0.48948,0.37306 -0.46302,0.71172 0.0609,0.75142 0.13493,1.50284 0.2196,2.25425 0.26194,2.36009 -0.73025,3.71211 -2.85485,3.8788 -2.81781,0.2196 -4.10898,-0.82286 -4.16454,-3.38667 -0.0159,-0.75406 0.0238,-1.51077 0.0318,-2.26748 0.0291,-2.4765 -0.69321,-3.58775 -3.10092,-4.18306 -3.30729,-0.82021 -6.28915,-2.32304 -9.16252,-4.06665 -3.67242,-2.22779 -6.86594,-4.96623 -8.97731,-8.80269 -0.54769,-0.99747 -0.98161,-2.03993 -1.27794,-3.13795 -0.0926,-0.33867 -0.41011,-0.77523 0.0847,-0.98425 0.38629,-0.16405 0.53975,0.30691 0.73554,0.54768 2.22514,2.77284 4.80748,5.15673 7.80785,7.06702 1.74361,1.11125 3.58511,1.98703 5.64886,2.36803 3.20939,0.59266 6.16214,-0.72232 7.76552,-3.5904 1.06362,-1.90235 2.01083,-3.87615 3.10885,-5.75733 4.46617,-7.64117 11.76337,-10.05682 19.94958,-6.65163 3.06652,1.27529 5.77321,3.06123 8.00629,5.54567 0.78582,0.87312 1.56898,1.75948 2.53736,2.43946 1.89971,1.3335 2.91571,1.13506 4.10898,-0.83873 1.12183,-1.85473 1.78858,-3.89202 2.032,-6.03515 0.20373,-1.88119 0.35719,-3.76767 0.30956,-5.66473 z"
         id="path4"
         style="mix-blend-mode:normal;fill:url(#linearGradient8096);fill-opacity:1;stroke-width:0.264583" />
      <path
         class="st1"
         d="m 73.99017,36.727629 c -0.0794,-1.6219 -0.16139,-3.24115 -0.24077,-4.86304 -0.20637,-4.16719 -2.67229,-6.093355 -6.7601,-5.17525 -2.02936,0.45508 -4.01373,1.11654 -6.02986,1.64571 -4.05341,1.06891 -7.72583,-1.54517 -8.1571,-5.746752 -0.24871,-2.418292 0.39952,-4.548187 2.03994,-6.305021 6.11187,-6.5378543 14.7267,-6.8553543 21.54237,-1.672166 2.80723,2.132541 4.08252,5.371041 5.23081,8.601604 3.05065,8.575145 2.15371,17.028585 -0.83079,25.399995 -1.27529,3.57982 -2.80987,7.03792 -5.26256,10.00125 -0.44185,0.53446 -0.86254,1.15623 -1.43404,1.50548 -2.05846,1.26207 -1.91029,3.18029 -1.62984,5.12763 0.14817,1.02923 0.48684,2.02671 0.67734,3.05064 0.23283,1.25413 -0.26988,2.16694 -1.44727,2.5453 -1.18269,0.37835 -2.39977,0.5371 -3.6539,0.30956 -1.06892,-0.19315 -1.59279,-0.82815 -1.76477,-1.86002 -0.20902,-1.26736 -0.15081,-2.54529 -0.21696,-3.81529 -0.037,-0.70115 -0.18256,-1.41817 -1.09537,-1.2753 -0.88636,0.13759 -0.68263,0.84667 -0.57944,1.47373 0.1614,0.9869 0.42069,1.96057 0.39423,2.97921 -0.0291,1.143 -0.52652,1.98967 -1.62454,2.26748 -3.4634,0.87842 -5.43984,-0.19579 -5.41602,-3.62744 0.005,-0.63764 0.21431,-1.32291 -0.24607,-1.90764 -0.62441,-0.79111 -4.86039,-0.74613 -5.46629,0.0661 -0.49212,0.65882 -0.3175,1.41552 -0.21166,2.1299 0.43656,2.95275 -0.0371,3.52689 -2.9898,3.54542 -3.06123,0.0185 -3.92906,-0.80963 -4.04018,-3.8735 -0.0212,-0.57944 -0.0185,-1.16153 -0.008,-1.74096 0.008,-0.40746 -0.0953,-0.67734 -0.57415,-0.65882 -0.46831,0.0159 -0.45243,0.34132 -0.42598,0.65353 0.0556,0.6932 0.12436,1.38377 0.20109,2.07697 0.24077,2.17223 -0.67204,3.41842 -2.62996,3.57188 -2.59556,0.20108 -3.78354,-0.75935 -3.83646,-3.11944 -0.0159,-0.69585 0.0212,-1.39171 0.0291,-2.08756 0.0265,-2.28071 -0.63765,-3.302 -2.85486,-3.85233 -3.04535,-0.75407 -5.78908,-2.14048 -8.43756,-3.74386 -3.38138,-2.05052 -6.3209,-4.57464 -8.26558,-8.10419 -0.50536,-0.9181 -0.90488,-1.87854 -1.1774,-2.88925 -0.0847,-0.3122 -0.37571,-0.71437 0.0794,-0.90752 0.35455,-0.15081 0.49742,0.28046 0.67734,0.50536 2.05052,2.55323 4.42648,4.74662 7.18873,6.50875 1.60602,1.02394 3.29935,1.82827 5.20171,2.18016 2.95539,0.54505 5.67266,-0.6641 7.15168,-3.30729 0.98161,-1.75154 1.84944,-3.56923 2.86279,-5.30225 4.11163,-7.03527 10.83205,-9.26041 18.37002,-6.1251 2.82311,1.17475 5.31548,2.82046 7.3713,5.10646 0.72231,0.80433 1.44462,1.61925 2.33627,2.24631 1.74889,1.22767 2.68552,1.0451 3.78354,-0.77258 1.03187,-1.70921 1.64571,-3.58511 1.8706,-5.5589 0.20373,-1.72508 0.34396,-3.4634 0.29898,-5.207 z"
         id="path6"
         style="fill:none;stroke:#1b1b1b;stroke-width:0.79375;stroke-linecap:round;stroke-linejoin:bevel;stroke-miterlimit:10;stroke-dasharray:none;stroke-opacity:1" />
      <path
         class="st2"
         d="m 61.53359,19.812818 c -0.60061,-0.145521 -1.02394,-0.486833 -0.96044,-1.119188 0.0609,-0.608541 0.48154,-0.981604 1.11654,-0.92075 0.5715,0.05292 0.92075,0.423334 0.88636,1.013355 -0.037,0.62177 -0.43392,0.9525 -1.04246,1.026583 z"
         id="path8"
         style="fill:#353537;stroke-width:0.79375;stroke-miterlimit:10;stroke-dasharray:none" />
      <text
         xml:space="preserve"
         style="font-style:normal;font-weight:normal;font-size:18.4542px;line-height:1.25;font-family:sans-serif;fill:#000000;fill-opacity:1;stroke:none;stroke-width:0.247154"
         x="12.450056"
         y="87.353256"
         id="text14239"
         transform="scale(0.93412477,1.0705208)"><tspan
           id="tspan14237"
           x="12.450056"
           y="87.353256"
           style="font-style:normal;font-variant:normal;font-weight:bold;font-stretch:normal;font-size:18.4542px;font-family:'Showcard Gothic';-inkscape-font-specification:'Showcard Gothic Bold';stroke-width:0.247154"
           sodipodi:role="line"><tspan
             style="font-style:normal;font-variant:normal;font-weight:bold;font-stretch:normal;font-family:'Showcard Gothic';-inkscape-font-specification:'Showcard Gothic Bold';fill:#1b1b1b;fill-opacity:1;stroke-width:0.247154"
             id="tspan28941">DINO</tspan><tspan
             style="font-style:normal;font-variant:normal;font-weight:bold;font-stretch:normal;font-family:'Showcard Gothic';-inkscape-font-specification:'Showcard Gothic Bold';fill:#228b22;fill-opacity:1;stroke-width:0.247154"
             id="tspan32507">TUR</tspan></tspan></text>
    </g>
  </g>
</svg>
